<svg xmlns="http://www.w3.org/2000/svg" viewBox="0 0 245 240">
  <path d="M104.4 104.8c-6.7 0-12 5.5-12 12.3s5.4 12.3 12 12.3c6.7 0 12-5.5 12-12.3s-5.3-12.3-12-12.3zm36.2 0c-6.7 0-12 5.5-12 12.3s5.4 12.3 12 12.3c6.7 0 12-5.5 12-12.3s-5.4-12.3-12-12.3z" fill="#ffffff"/>
  <path d="M189.5 20H55.4C34.1 20 17 37.1 17 58.4v123.2c0 21.3 17.1 38.4 38.4 38.4h109.1l-5.1-17.8 12.4 11.5 11.8 10.9 20.9 18.9V58.4C227 37.1 209.9 20 189.5 20z" fill="#5865F2"/>
  <path d="M175.9 161.2c-9.3 0-16.9-8.4-16.9-18.8s7.5-18.8 16.9-18.8c9.3 0 16.9 8.4 16.9 18.8s-7.6 18.8-16.9 18.8zm-90.5 0c-9.3 0-16.9-8.4-16.9-18.8s7.5-18.8 16.9-18.8c9.3 0 16.9 8.4 16.9 18.8s-7.6 18.8-16.9 18.8z" fill="#ffffff" opacity="0.9"/>
</svg>
