<svg xmlns="http://www.w3.org/2000/svg" viewBox="0 0 245 240">
  <rect width="245" height="240" rx="60" fill="#5865F2"/>
  <path d="M104.4 104.8c-6.7 0-12 5.5-12 12.3s5.4 12.3 12 12.3c6.7 0 12-5.5 12-12.3s-5.3-12.3-12-12.3zm36.2 0c-6.7 0-12 5.5-12 12.3s5.4 12.3 12 12.3c6.7 0 12-5.5 12-12.3s-5.4-12.3-12-12.3z" fill="#fff"/>
  <path d="M189.5 20H55.4C34.1 20 17 37.1 17 58.4v123.2c0 21.3 17.1 38.4 38.4 38.4h109.1l-5.1-17.8 12.4 11.5 11.8 10.9 20.9 18.9V58.4C227 37.1 209.9 20 189.5 20z" fill="#fff" opacity="0.1"/>
</svg>
