<svg xmlns="http://www.w3.org/2000/svg" viewBox="0 0 512 512">
  <linearGradient id="insta-grad" x1="0%" y1="0%" x2="100%" y2="100%">
    <stop offset="0%" stop-color="#feda75"/>
    <stop offset="30%" stop-color="#fa7e1e"/>
    <stop offset="60%" stop-color="#d62976"/>
    <stop offset="100%" stop-color="#962fbf"/>
  </linearGradient>
  <rect width="512" height="512" rx="96" fill="url(#insta-grad)"/>
  <path d="M363.8 156.2c-25.5-25.5-59.5-39.6-95.8-39.6s-70.3 14.1-95.8 39.6c-25.5 25.5-39.6 59.5-39.6 95.8s14.1 70.3 39.6 95.8c25.5 25.5 59.5 39.6 95.8 39.6s70.3-14.1 95.8-39.6c25.5-25.5 39.6-59.5 39.6-95.8s-14.1-70.3-39.6-95.8Zm-34.8 194.8c-19.4 19.4-45.2 30.1-72.6 30.1s-53.2-10.7-72.6-30.1-30.1-45.2-30.1-72.6 10.7-53.2 30.1-72.6 45.2-30.1 72.6-30.1 53.2 10.7 72.6 30.1 30.1 45.2 30.1 72.6-10.7 53.2-30.1 72.6Zm53.8-131.5c-12.5 0-22.7-10.2-22.7-22.7s10.2-22.7 22.7-22.7 22.7 10.2 22.7 22.7-10.2 22.7-22.7 22.7Z" fill="#fff"/>
</svg>
