<svg xmlns="http://www.w3.org/2000/svg" viewBox="0 0 576 512">
  <path fill="#FF0000" d="M549.655 124.083c-6.281-23.692-24.838-42.334-48.578-48.648C458.976 64 288 64 288 64s-170.976 0-213.077 11.435c-23.74 6.314-42.297 24.956-48.578 48.648C16 166.283 16 256 16 256s0 89.717 10.345 131.917c6.281 23.692 24.838 42.334 48.578 48.648C117.024 448 288 448 288 448s170.976 0 213.077-11.435c23.74-6.314 42.297-24.956 48.578-48.648C560 345.717 560 256 560 256s0-89.717-10.345-131.917z"/>
  <path fill="#FFF" d="M230.4 336.5V175.5l142.1 80.5-142.1 80.5z"/>
</svg>
